{"title":"Zoltan Korda - Die elf Teufel (1927)","uid":5981929,"size":1365617978,"categoryP":"video","categoryS":"movies","magnet":"?xt=urn:btih:4fcacae07843c82920f560b3476d067934361d22&amp;dn=Zoltan+Korda+-+Die+elf+Teufel+%281927%29&amp;tr=udp%3A%2F%2Ftracker.openbittorrent.com%3A80&amp;tr=udp%3A%2F%2Fopen.demonii.com%3A1337&amp;tr=udp%3A%2F%2Ftracker.coppersurfer.tk%3A6969&amp;tr=udp%3A%2F%2Fexodus.desync.com%3A6969","seeders":0,"leechers":1,"uploader":"mfccorrea","files":3,"time":1290618243,"description":"It all sounds like a cliche: on the one side, the poor but honest workers' team who have to count their pennies and shower in the open air, and call their club &quot;Linda&quot; after the nice girl who has become their mascot; on the other, the stinking rich club &quot;International&quot;, who can buy the top players, have an indoor pool and rows of massage tables, and hire a &quot;femme fatale&quot; to do their dirty work when money can't buy what they want.\n\nDie elf Teufel / The Eleven Devils was made in Berlin in the summer of 1927, in the last throes of the silent movie era. But Die elf Teufel strikes one today as a prophetic film. One of its early captions is &quot;Football, the sport of the century &quot;. We are shown a ball bathed in light like some sacred relic, and observe how, even in those early days, fans on the terraces wouldn't shy away from using their fists.\n\nFinally, after the odd kickabout and plenty of commercial and erotic intrigue, we come to the showdown, the match that decides which team fields the better men. The film's structure is like a long overture followed by a rip-roaring finale. Even in those days ZoltÃƒÂ¡n Korda knew that, for credibility's sake, he could only show the match in fragments. The credits reveal that the two teams filmed in long shot were made up of the best players from the top German clubs. But as none of them are identifiable on screen, the shots and close-ups of the main characters could be woven seamlessly into the whole. As the game proceeds, the cuts happen more and more quickly until the fictitious match develops a momentum of its own. Korda proves himself here - only three years after Murnau's groundbreaking The Last Laugh - to be a model pupil in the use of the &quot;unchained camera&quot;, and anticipates with breathtaking virtuosity today's rapid tracking shots along the touchline. Such camerawork in a silent movie must literally have taken the spectators' breath away. At the end the film offers a hymn to the &quot;unifying idea of sport&quot;. But the subtext, the secret doubts and questions that partly undermine that conclusion, are unmistakable.\n\n   General\n      Complete name : Die elf Teufel.avi\n      Format : AVI\n      Format/Info : Audio Video Interleave\n      File size : 1.27 GiB\n      Duration : 1h 32mn\n      Overall bit rate : 1 964 Kbps\n      Writing application : FairUse Wizard - http://fairusewizard.com\n      Writing library : The best and REALLY easy backup tool\n   Video #0\n      ID : 0\n      Format : MPEG-4 Visual\n      Format profile : AdvancedSimple@L5\n      Format settings, BVOP : Yes\n      Format settings, QPel : No\n      Format settings, GMC : No warppoints\n      Format settings, Matrix : Default (MPEG)\n      Muxing mode : Packed bitstream\n      Codec ID : XVID\n      Codec ID/Hint : XviD\n      Duration : 1h 32mn\n      Bit rate : 1 731 Kbps\n      Width : 672 pixels\n      Height : 496 pixels\n      Display aspect ratio : 4:3\n      Frame rate : 25.000 fps\n      Resolution : 24 bits\n      Colorimetry : 4:2:0\n      Scan type : Progressive\n      Bits/(Pixel*Frame) : 0.208\n      Stream size : 1.12 GiB (88%)\n      Writing library : XviD 1.2.1 (UTC 2008-12-04)\n   Audio #1\n      ID : 1\n      Format : AC-3\n      Format/Info : Audio Coding 3\n      Codec ID : 2000\n      Duration : 1h 32mn\n      Bit rate mode : Constant\n      Bit rate : 224 Kbps\n      Channel(s) : 2 channels\n      Channel positions : L R\n      Sampling rate : 48.0 KHz\n      Stream size : 148 MiB (11%)\n      Alignment : Split accross interleaves\n      Interleave, duration : 40 ms (1.00 video frame)\n      Interleave, preload duration : 500 ms\n &lt;a href=&quot;\nhttp://www.imdb.com/title/tt0349398/&quot; rel=&quot;nofollow&quot; target=&quot;_NEW&quot;&gt;\nhttp://www.imdb.com/title/tt0349398/&lt;/a&gt;\n\nSilent, with German intertitles; English, French, Spanish and Portuguese subpack (idx/sub)\n\nZoltan Korda - Die elf Teufel (1927)\n","torrent":{"xt":"urn:btih:4fcacae07843c82920f560b3476d067934361d22","amp;dn":"Zoltan+Korda+-+Die+elf+Teufel+%281927%29","amp;tr":["udp%3A%2F%2Ftracker.openbittorrent.com%3A80","udp%3A%2F%2Fopen.demonii.com%3A1337","udp%3A%2F%2Ftracker.coppersurfer.tk%3A6969","udp%3A%2F%2Fexodus.desync.com%3A6969"],"infoHash":"4fcacae07843c82920f560b3476d067934361d22","infoHashBuffer":{"type":"Buffer","data":[79,202,202,224,120,67,200,41,32,245,96,179,71,109,6,121,52,54,29,34]},"announce":[],"urlList":[]}}